# Blender v2.93.0 OBJ File: ''
# www.blender.org
mtllib test3.mtl
o Cube.004
v 0.682784 1.694500 -1.137798
v -1.317216 1.694500 -1.137798
v -1.317216 1.694500 0.862202
v 0.682784 1.694500 0.862202
v 0.682784 -0.305500 0.862202
v -1.317216 -0.305500 0.862202
v -1.317216 -0.305500 -1.137798
v 0.682784 -0.305500 -1.137798
vt 0.875000 0.500000
vt 0.625000 0.750000
vt 0.625000 0.500000
vt 0.375000 1.000000
vt 0.375000 0.750000
vt 0.625000 0.000000
vt 0.375000 0.250000
vt 0.375000 0.000000
vt 0.375000 0.500000
vt 0.125000 0.750000
vt 0.125000 0.500000
vt 0.625000 0.250000
vt 0.875000 0.750000
vt 0.625000 1.000000
vn 0.0000 1.0000 0.0000
vn 0.0000 -0.0000 1.0000
vn -1.0000 0.0000 0.0000
vn 0.0000 -1.0000 -0.0000
vn 1.0000 0.0000 0.0000
vn 0.0000 0.0000 -1.0000
usemtl Material.004
s 1
f 2/1/1 4/2/1 1/3/1
f 4/2/2 6/4/2 5/5/2
f 3/6/3 7/7/3 6/8/3
f 8/9/4 6/10/4 7/11/4
f 1/3/5 5/5/5 8/9/5
f 2/12/6 8/9/6 7/7/6
f 2/1/1 3/13/1 4/2/1
f 4/2/2 3/14/2 6/4/2
f 3/6/3 2/12/3 7/7/3
f 8/9/4 5/5/4 6/10/4
f 1/3/5 4/2/5 5/5/5
f 2/12/6 1/3/6 8/9/6
o Solid.002
v -1.202036 3.589680 -0.470620
v -0.259227 2.256347 -0.470620
v -1.673441 2.256347 -1.287116
v -1.673441 2.256347 0.345877
vt 0.625000 0.500000
vt 0.625000 0.500000
vt 0.625000 0.500000
vt 0.625000 0.500000
vn 0.4714 0.3333 -0.8165
vn -0.9428 0.3333 0.0000
vn 0.4714 0.3333 0.8165
vn 0.0000 -1.0000 0.0000
usemtl Material.005
s 1
f 9/15/7 10/16/7 11/17/7
f 9/15/8 11/17/8 12/18/8
f 9/15/9 12/18/9 10/16/9
f 10/16/10 12/18/10 11/17/10
o Icosphere.002
v -2.376284 2.150408 1.496719
v -1.950962 2.299754 1.805730
v -2.538740 2.299754 1.996714
v -1.652677 2.703188 2.022444
v -1.525636 2.624672 1.496719
v -2.902014 2.299756 1.496719
v -2.538740 2.299754 0.996724
v -1.950962 2.299754 1.187708
v -1.425226 3.150408 1.805732
v -2.652672 2.703188 2.347368
v -2.113415 2.624671 2.305731
v -2.376284 3.150408 2.496719
v -3.270710 2.703192 1.496719
v -3.064474 2.624672 1.996716
v -3.327342 3.150408 1.805732
v -2.652672 2.703188 0.646070
v -3.064474 2.624672 0.996722
v -2.964070 3.150408 0.687702
v -1.652677 2.703188 0.970994
v -2.113415 2.624671 0.687707
v -1.788499 3.150408 0.687702
v -1.788499 3.150408 2.305736
v -2.964070 3.150408 2.305736
v -3.327342 3.150408 1.187706
v -2.376284 3.150408 0.496719
v -1.425226 3.150408 1.187706
v -2.099896 3.597628 2.347368
v -1.688095 3.676144 1.996716
v -2.213829 4.001062 1.996714
v -3.099892 3.597628 2.022444
v -2.639153 3.676146 2.305731
v -2.801607 4.001062 1.805730
v -3.099892 3.597628 0.970994
v -3.226932 3.676144 1.496719
v -2.801607 4.001062 1.187708
v -2.099896 3.597628 0.646070
v -2.639153 3.676146 0.687707
v -2.213829 4.001062 0.996724
v -1.481858 3.597624 1.496719
v -1.688095 3.676144 0.996722
v -1.850555 4.001060 1.496719
v -2.376284 4.150408 1.496719
vt 0.181819 0.000000
vt 0.227273 0.078731
vt 0.136365 0.078731
vt 0.272728 0.157461
vt 0.318182 0.078731
vt 0.363637 0.157461
vt 0.909091 0.000000
vt 0.954545 0.078731
vt 0.863636 0.078731
vt 0.727273 0.000000
vt 0.772727 0.078731
vt 0.681818 0.078731
vt 0.545455 0.000000
vt 0.590909 0.078731
vt 0.500000 0.078731
vt 0.318182 0.236191
vt 0.090910 0.157461
vt 0.181819 0.157461
vt 0.136365 0.236191
vt 0.818182 0.157461
vt 0.909091 0.157461
vt 0.863636 0.236191
vt 0.636364 0.157461
vt 0.727273 0.157461
vt 0.681818 0.236191
vt 0.454546 0.157461
vt 0.545455 0.157461
vt 0.500000 0.236191
vt 0.227273 0.236191
vt 0.045455 0.236191
vt 0.772727 0.236191
vt 0.590909 0.236191
vt 0.409092 0.236191
vt 0.181819 0.314921
vt 0.272728 0.314921
vt 0.227273 0.393651
vt 0.000000 0.314921
vt 0.090910 0.314921
vt 0.045455 0.393651
vt 0.727273 0.314921
vt 0.818182 0.314921
vt 0.772727 0.393651
vt 0.545455 0.314921
vt 0.636364 0.314921
vt 0.590909 0.393651
vt 0.363637 0.314921
vt 0.454546 0.314921
vt 0.409092 0.393651
vt 0.500000 0.393651
vt 0.454546 0.472382
vt 0.681818 0.393651
vt 0.636364 0.472382
vt 0.863636 0.393651
vt 0.818182 0.472382
vt 0.909091 0.314921
vt 0.136365 0.393651
vt 0.090910 0.472382
vt 0.318182 0.393651
vt 0.272728 0.472382
vt 0.954545 0.236191
vt 1.000000 0.157461
vt 0.409092 0.078731
vt 0.363637 0.000000
vn 0.1024 -0.9435 0.3151
vn 0.7002 -0.6617 0.2680
vn -0.2680 -0.9435 0.1947
vn -0.2680 -0.9435 -0.1947
vn 0.1024 -0.9435 -0.3151
vn 0.9050 -0.3304 0.2680
vn 0.0247 -0.3304 0.9435
vn -0.8897 -0.3304 0.3151
vn -0.5746 -0.3304 -0.7488
vn 0.5346 -0.3304 -0.7779
vn 0.8026 -0.1256 0.5831
vn -0.3066 -0.1256 0.9435
vn -0.9921 -0.1256 0.0000
vn -0.3066 -0.1256 -0.9435
vn 0.8026 -0.1256 -0.5831
vn 0.4089 0.6617 0.6284
vn -0.4713 0.6617 0.5831
vn -0.7002 0.6617 -0.2680
vn 0.0385 0.6617 -0.7488
vn 0.7240 0.6617 -0.1947
vn 0.2680 0.9435 -0.1947
vn 0.4911 0.7947 -0.3568
vn 0.4089 0.6617 -0.6284
vn -0.1024 0.9435 -0.3151
vn -0.1876 0.7947 -0.5773
vn -0.4713 0.6617 -0.5831
vn -0.3313 0.9435 0.0000
vn -0.6071 0.7947 0.0000
vn -0.7002 0.6617 0.2680
vn -0.1024 0.9435 0.3151
vn -0.1876 0.7947 0.5773
vn 0.0385 0.6617 0.7488
vn 0.2680 0.9435 0.1947
vn 0.4911 0.7947 0.3568
vn 0.7240 0.6617 0.1947
vn 0.8897 0.3304 -0.3151
vn 0.7947 0.1876 -0.5773
vn 0.5746 0.3304 -0.7488
vn -0.0247 0.3304 -0.9435
vn -0.3035 0.1876 -0.9342
vn -0.5346 0.3304 -0.7779
vn -0.9050 0.3304 -0.2680
vn -0.9822 0.1876 0.0000
vn -0.9050 0.3304 0.2680
vn -0.5346 0.3304 0.7779
vn -0.3035 0.1876 0.9342
vn -0.0247 0.3304 0.9435
vn 0.5746 0.3304 0.7488
vn 0.7947 0.1876 0.5773
vn 0.8897 0.3304 0.3151
vn 0.3066 0.1256 -0.9435
vn 0.3035 -0.1876 -0.9342
vn 0.0247 -0.3304 -0.9435
vn -0.8026 0.1256 -0.5831
vn -0.7947 -0.1876 -0.5773
vn -0.8897 -0.3304 -0.3151
vn -0.8026 0.1256 0.5831
vn -0.7947 -0.1876 0.5773
vn -0.5746 -0.3304 0.7488
vn 0.3066 0.1256 0.9435
vn 0.3035 -0.1876 0.9342
vn 0.5346 -0.3304 0.7779
vn 0.9921 0.1256 0.0000
vn 0.9822 -0.1876 0.0000
vn 0.9050 -0.3304 -0.2680
vn 0.4713 -0.6617 -0.5831
vn 0.1876 -0.7947 -0.5773
vn -0.0385 -0.6617 -0.7488
vn -0.4089 -0.6617 -0.6284
vn -0.4911 -0.7947 -0.3568
vn -0.7240 -0.6617 -0.1947
vn -0.7240 -0.6617 0.1947
vn -0.4911 -0.7947 0.3568
vn -0.4089 -0.6617 0.6284
vn 0.7002 -0.6617 -0.2680
vn 0.6071 -0.7947 0.0000
vn 0.3313 -0.9435 0.0000
vn -0.0385 -0.6617 0.7488
vn 0.1876 -0.7947 0.5773
vn 0.4713 -0.6617 0.5831
usemtl None.001
s 1
f 13/19/11 14/20/11 15/21/11
f 16/22/12 14/23/12 17/24/12
f 13/25/13 15/26/13 18/27/13
f 13/28/14 18/29/14 19/30/14
f 13/31/15 19/32/15 20/33/15
f 16/22/16 17/24/16 21/34/16
f 22/35/17 23/36/17 24/37/17
f 25/38/18 26/39/18 27/40/18
f 28/41/19 29/42/19 30/43/19
f 31/44/20 32/45/20 33/46/20
f 16/22/21 21/34/21 34/47/21
f 22/35/22 24/37/22 35/48/22
f 25/38/23 27/40/23 36/49/23
f 28/41/24 30/43/24 37/50/24
f 31/44/25 33/46/25 38/51/25
f 39/52/26 40/53/26 41/54/26
f 42/55/27 43/56/27 44/57/27
f 45/58/28 46/59/28 47/60/28
f 48/61/29 49/62/29 50/63/29
f 51/64/30 52/65/30 53/66/30
f 53/66/31 50/67/31 54/68/31
f 53/66/32 52/65/32 50/67/32
f 52/65/33 48/61/33 50/67/33
f 50/63/34 47/69/34 54/70/34
f 50/63/35 49/62/35 47/69/35
f 49/62/36 45/58/36 47/69/36
f 47/60/37 44/71/37 54/72/37
f 47/60/38 46/59/38 44/71/38
f 46/59/39 42/73/39 44/71/39
f 44/57/40 41/74/40 54/75/40
f 44/57/41 43/56/41 41/74/41
f 43/56/42 39/52/42 41/74/42
f 41/54/43 53/76/43 54/77/43
f 41/54/44 40/53/44 53/76/44
f 40/53/45 51/64/45 53/76/45
f 38/51/46 52/65/46 51/64/46
f 38/51/47 33/46/47 52/65/47
f 33/46/48 48/61/48 52/65/48
f 37/50/49 49/62/49 48/61/49
f 37/50/50 30/43/50 49/62/50
f 30/43/51 45/58/51 49/62/51
f 36/49/52 46/59/52 45/58/52
f 36/49/53 27/40/53 46/59/53
f 27/40/54 42/73/54 46/59/54
f 35/48/55 43/56/55 42/55/55
f 35/48/56 24/37/56 43/56/56
f 24/37/57 39/52/57 43/56/57
f 34/47/58 40/53/58 39/52/58
f 34/47/59 21/34/59 40/53/59
f 21/34/60 51/64/60 40/53/60
f 33/46/61 37/50/61 48/61/61
f 33/46/62 32/45/62 37/50/62
f 32/45/63 28/41/63 37/50/63
f 30/43/64 36/49/64 45/58/64
f 30/43/65 29/42/65 36/49/65
f 29/42/66 25/38/66 36/49/66
f 27/40/67 35/78/67 42/73/67
f 27/40/68 26/39/68 35/78/68
f 26/39/69 22/79/69 35/78/69
f 24/37/70 34/47/70 39/52/70
f 24/37/71 23/36/71 34/47/71
f 23/36/72 16/22/72 34/47/72
f 21/34/73 38/51/73 51/64/73
f 21/34/74 17/24/74 38/51/74
f 17/24/75 31/44/75 38/51/75
f 20/33/76 32/45/76 31/44/76
f 20/33/77 19/32/77 32/45/77
f 19/32/78 28/41/78 32/45/78
f 19/30/79 29/42/79 28/41/79
f 19/30/80 18/29/80 29/42/80
f 18/29/81 25/38/81 29/42/81
f 18/27/82 26/39/82 25/38/82
f 18/27/83 15/26/83 26/39/83
f 15/26/84 22/79/84 26/39/84
f 17/24/85 20/80/85 31/44/85
f 17/24/86 14/23/86 20/80/86
f 14/23/87 13/81/87 20/80/87
f 15/21/88 23/36/88 22/35/88
f 15/21/89 14/20/89 23/36/89
f 14/20/90 16/22/90 23/36/90
